HIERARCHY
ROOT hip
{
  OFFSET 0 0 0
  CHANNELS 6 Xposition Yposition Zposition Zrotation Yrotation Xrotation
  JOINT abdomen
  {
    OFFSET 0 20.6881 -0.73152
    CHANNELS 3 Zrotation Xrotation Yrotation
    JOINT chest
    {
      OFFSET 0 11.7043 -0.48768
      CHANNELS 3 Zrotation Xrotation Yrotation
      JOINT neck
      {
        OFFSET 0 22.1894 -2.19456
        CHANNELS 3 Zrotation Xrotation Yrotation
        JOINT head
        {
          OFFSET -0.24384 7.07133 1.2192
          CHANNELS 3 Zrotation Xrotation Yrotation
          JOINT leftEye
          {
            OFFSET 4.14528 8.04674 8.04672
            CHANNELS 3 Zrotation Xrotation Yrotation
            End Site
            {
              OFFSET 1 0 0
            }
          }
          JOINT rightEye
          {
            OFFSET -3.6576 8.04674 8.04672
            CHANNELS 3 Zrotation Xrotation Yrotation
            End Site
            {
              OFFSET 1 0 0
            }
          }
        }
      }
      JOINT rCollar
      {
        OFFSET -2.68224 19.2634 -4.8768
        CHANNELS 3 Zrotation Xrotation Yrotation
        JOINT rShldr
        {
          OFFSET -8.77824 -1.95073 1.46304
          CHANNELS 3 Zrotation Xrotation Yrotation
          JOINT rForeArm
          {
            OFFSET -28.1742 -1.7115 0.48768
            CHANNELS 3 Zrotation Xrotation Yrotation
            JOINT rHand
            {
              OFFSET -22.5879 0.773209 7.07136
              CHANNELS 3 Zrotation Xrotation Yrotation
              JOINT rThumb1
              {
                OFFSET -1.2192 -0.487915 3.41376
                CHANNELS 3 Zrotation Xrotation Yrotation
                JOINT rThumb2
                {
                  OFFSET -3.37035 -0.52449 3.41376
                  CHANNELS 3 Zrotation Xrotation Yrotation
                  End Site
                  {
                    OFFSET -1.78271 -1.18214 1.43049
                  }
                }
              }
              JOINT rIndex1
              {
                OFFSET -7.75947 0.938293 5.60832
                CHANNELS 3 Zrotation Xrotation Yrotation
                JOINT rIndex2
                {
                  OFFSET -2.54057 -0.884171 1.56538
                  CHANNELS 3 Zrotation Xrotation Yrotation
                  End Site
                  {
                    OFFSET -1.62519 -0.234802 1.16502
                  }
                }
              }
              JOINT rMid1
              {
                OFFSET -8.24714 1.18213 3.41376
                CHANNELS 3 Zrotation Xrotation Yrotation
                JOINT rMid2
                {
                  OFFSET -3.10165 -0.590103 1.0647
                  CHANNELS 3 Zrotation Xrotation Yrotation
                  End Site
                  {
                    OFFSET -2.48547 -0.328903 0.83742
                  }
                }
              }
              JOINT rRing1
              {
                OFFSET -8.82822 0.546677 1.51678
                CHANNELS 3 Zrotation Xrotation Yrotation
                JOINT rRing2
                {
                  OFFSET -2.60934 -0.819778 -0.0198488
                  CHANNELS 3 Zrotation Xrotation Yrotation
                  End Site
                  {
                    OFFSET -2.33842 -0.294052 0.168128
                  }
                }
              }
              JOINT rPinky1
              {
                OFFSET -8.27202 -0.0477905 -0.4584
                CHANNELS 3 Zrotation Xrotation Yrotation
                JOINT rPinky2
                {
                  OFFSET -1.82734 -0.647385 -0.700984
                  CHANNELS 3 Zrotation Xrotation Yrotation
                  End Site
                  {
                    OFFSET -1.69225 -0.51767 -0.607171
                  }
                }
              }
            }
          }
        }
      }
      JOINT lCollar
      {
        OFFSET 2.68224 19.2634 -4.8768
        CHANNELS 3 Zrotation Xrotation Yrotation
        JOINT lShldr
        {
          OFFSET 8.77824 -1.95073 1.46304
          CHANNELS 3 Zrotation Xrotation Yrotation
          JOINT lForeArm
          {
            OFFSET 28.1742 -1.7115 0.48768
            CHANNELS 3 Zrotation Xrotation Yrotation
            JOINT lHand
            {
              OFFSET 22.5879 0.773209 7.07136
              CHANNELS 3 Zrotation Xrotation Yrotation
              JOINT lThumb1
              {
                OFFSET 1.2192 -0.487915 3.41376
                CHANNELS 3 Zrotation Xrotation Yrotation
                JOINT lThumb2
                {
                  OFFSET 3.37035 -0.52449 3.41376
                  CHANNELS 3 Zrotation Xrotation Yrotation
                  End Site
                  {
                    OFFSET 1.78271 -1.18214 1.43049
                  }
                }
              }
              JOINT lIndex1
              {
                OFFSET 7.75947 0.938293 5.60832
                CHANNELS 3 Zrotation Xrotation Yrotation
                JOINT lIndex2
                {
                  OFFSET 2.54057 -0.884171 1.56538
                  CHANNELS 3 Zrotation Xrotation Yrotation
                  End Site
                  {
                    OFFSET 1.62519 -0.234802 1.16502
                  }
                }
              }
              JOINT lMid1
              {
                OFFSET 8.24714 1.18213 3.41376
                CHANNELS 3 Zrotation Xrotation Yrotation
                JOINT lMid2
                {
                  OFFSET 3.10165 -0.590103 1.0647
                  CHANNELS 3 Zrotation Xrotation Yrotation
                  End Site
                  {
                    OFFSET 2.48547 -0.328903 0.83742
                  }
                }
              }
              JOINT lRing1
              {
                OFFSET 8.82822 0.546677 1.51678
                CHANNELS 3 Zrotation Xrotation Yrotation
                JOINT lRing2
                {
                  OFFSET 2.60934 -0.819778 -0.0198488
                  CHANNELS 3 Zrotation Xrotation Yrotation
                  End Site
                  {
                    OFFSET 2.33842 -0.294052 0.168128
                  }
                }
              }
              JOINT lPinky1
              {
                OFFSET 8.27202 -0.0477905 -0.4584
                CHANNELS 3 Zrotation Xrotation Yrotation
                JOINT lPinky2
                {
                  OFFSET 1.82734 -0.647385 -0.700984
                  CHANNELS 3 Zrotation Xrotation Yrotation
                  End Site
                  {
                    OFFSET 1.69225 -0.51767 -0.607171
                  }
                }
              }
            }
          }
        }
      }
    }
  }
  JOINT rButtock
  {
    OFFSET -8.77824 4.35084 1.2192
    CHANNELS 3 Zrotation Xrotation Yrotation
    JOINT rThigh
    {
      OFFSET 0 -1.70687 -2.19456
      CHANNELS 3 Zrotation Xrotation Yrotation
      JOINT rShin
      {
        OFFSET 0 -36.8199 0.73152
        CHANNELS 3 Zrotation Xrotation Yrotation
        JOINT rFoot
        {
          OFFSET 0.73152 -45.1104 -5.12064
          CHANNELS 3 Zrotation Xrotation Yrotation
          End Site
          {
            OFFSET -1.1221 -3.69964 12.103
          }
        }
      }
    }
  }
  JOINT lButtock
  {
    OFFSET 8.77824 4.35084 1.2192
    CHANNELS 3 Zrotation Xrotation Yrotation
    JOINT lThigh
    {
      OFFSET 0 -1.70687 -2.19456
      CHANNELS 3 Zrotation Xrotation Yrotation
      JOINT lShin
      {
        OFFSET 0 -36.8199 0.73152
        CHANNELS 3 Zrotation Xrotation Yrotation
        JOINT lFoot
        {
          OFFSET -0.73152 -45.1104 -5.12064
          CHANNELS 3 Zrotation Xrotation Yrotation
          End Site
          {
            OFFSET 1.1221 -3.69964 12.103
          }
        }
      }
    }
  }
}
MOTION
Frames:	6
Frame Time:	0.03333
16.3517 56.1673 -10.316699999999999 -121.835176 -83.034748 124.973208 -2.419044 11.773028 178.835229 0.230501 6.492736 -160.106556 -13.834741 24.458765 -80.461701 46.137817 11.038466 83.663886 -0.003759 0.0 -0.00264 0.002055 -0.0 -0.001404 -2.132847 -76.594385 -21.62412 -94.353708 -29.975207 -125.920016 179.969647 -40.023211 -79.789983 -13.850215 -36.092735 -9.127505 -4.155637 4.048644 0.781886 1.787862 -1.243856 1.307988 -15.723924 20.778744 10.696496 59.783112 -52.965957 16.709746 -160.88806 -7.329599 143.342592 -10.362094 31.231542 8.537974 -145.115049 -0.168172 -179.074112 -8.551957 -62.776548 -29.582391 1.568503 4.248071 1.442757 -153.605986 33.987298 -147.962786 3.20691 15.731834 -3.984962 107.846519 -10.044596 -149.712604 -1.686965 -22.748369 125.733959 -158.968437 -34.745184 -139.645841 -178.278476 -19.074574 -88.976776 18.008599 -45.812562 3.037625 144.619034 -5.01636 -118.322393 162.082257 -14.488907 -119.351799 15.392137 32.917577 -11.270443 -44.705331 -70.677835 -18.802528 -0.002784 0.289998 -0.092213 156.16416 -14.354632 -173.553837 55.461916 -50.580678 54.127638 13.584346 -31.301898 15.948687 -179.916997 75.749021 -0.062889 179.122601 36.355216 -178.79779 -46.371651 -84.841552 69.223856 -73.900975 -46.62694 9.07789 -0.005522 -0.000556 -0.00613 32.034953 -57.08786 -30.008506 -38.560058 27.391069 -78.319588 111.840568 -8.597035 -157.601819
18.1135 56.3956 -11.513 -86.505069 -84.246086 90.162958 -1.853402 12.145892 -170.118436 1.928996 6.375066 -172.156363 4.838818 31.287494 145.257046 -34.962584 40.488565 -128.290689 -0.000995 0.0 -0.002535 -0.00028 -0.0 0.000656 -152.305827 13.360813 157.768902 136.385815 48.034436 174.924671 157.850018 -64.383587 12.433275 -145.809937 33.148636 126.336997 12.892259 -12.849854 -0.54076 -17.818854 16.841006 7.8048 27.210413 -46.796816 -4.844454 -141.030831 10.556114 109.634693 -174.402214 -47.343245 144.564601 -166.068889 -12.798897 143.670344 -0.022546 -1.833554 -0.578028 -156.094069 -16.924819 173.850479 -4.932478 -11.418017 -4.620111 -6.622411 -20.864179 -8.377914 -1.660207 -11.372749 2.361352 102.536586 -23.004212 -176.344173 172.25541 16.782583 91.705659 7.612145 30.973745 -1.93646 175.742505 -13.379816 -89.766902 66.726644 1.222443 -17.387422 -75.954117 -73.992003 -28.75217 171.584975 -38.330501 -111.722759 140.805996 35.991778 -128.913264 150.589674 26.594893 -136.209369 145.11966 0.229934 179.199427 154.150432 -12.715211 177.472067 121.232973 -32.988418 119.094743 -43.663548 79.637463 6.69386 0.000362 -0.001924 0.000173 0.639154 -37.871233 0.112609 75.079012 73.658841 30.574073 116.419583 52.772156 152.721121 -0.00151 0.000931 -0.001039 27.291362 -59.048078 30.983913 23.020795 33.689366 44.124517 -132.055929 10.90602 50.909
19.917099999999998 56.5295 -12.734799999999998 -48.840329 -82.94957 52.872776 -2.853767 12.685109 163.847646 -2.225999 6.472495 -146.806346 -9.042504 33.038457 -135.236381 36.739936 44.874683 121.53857 -0.004266 -0.0 0.002041 0.001203 -0.0 -0.000961 -78.595159 68.391676 81.673817 30.456513 -33.918691 79.520743 -112.139093 -30.965701 30.98739 179.490965 -63.609151 154.718562 -169.508523 -7.189409 89.926787 -141.441734 7.676268 71.298506 -2.824459 4.433918 1.668463 19.833575 -12.58339 -1.371356 -126.516824 49.280886 116.081069 -6.056147 23.750479 5.489392 -145.119466 2.63289 -179.956185 11.517109 56.94076 -2.004098 -144.549992 10.129179 -141.271781 -0.299946 -6.305512 -4.103405 0.630274 -74.725327 19.750329 -44.603747 3.266623 48.84833 -74.994102 44.062862 -34.387176 53.567373 72.486086 -37.17578 173.321054 -10.994903 -89.909645 101.795392 13.893159 -42.757245 14.702333 19.712044 -9.918678 -15.154796 -8.675442 1.58805 138.829099 38.417666 -127.19743 -142.491891 -74.796148 -110.658225 145.098552 -1.692664 178.596437 150.329523 -34.575837 173.169209 44.366142 -47.87987 43.152317 167.251056 71.692284 146.769408 0.000759 0.000653 5e-06 1.546566 -41.071031 171.466848 -72.432437 -83.183981 -139.31245 -134.956551 -19.329125 173.763721 179.991469 75.749054 0.004629 -168.854915 10.358538 106.182332 32.686813 -20.18747 -84.834606 73.665503 -21.467875 -28.842204
21.7476 56.5809 -14.016300000000001 -27.996775 -79.631942 32.21161 -1.069845 18.043023 -15.202184 2.065236 -11.564528 30.777704 2.71333 33.649818 160.185049 -25.124961 51.065587 -151.148036 -0.002295 0.0 -0.004596 -0.001376 -0.0 0.000663 -7.857887 30.617585 9.245484 -92.113792 7.146884 110.119613 155.511455 -56.453233 -84.712708 -16.160176 -3.826647 -2.218499 -6.36535 6.144019 1.310104 -84.815888 19.031324 78.747256 -135.291171 9.517555 112.799455 -147.323198 16.83421 114.026825 -1.039303 2.975401 0.594572 -161.068633 1.807171 142.540095 -0.019542 -1.607793 -0.506222 7.541914 26.772728 4.067264 -144.816287 10.947356 -141.504194 6.873299 12.394298 1.329168 -1.078765 -7.027963 1.494408 -74.992211 8.095146 -7.715433 3.225437 2.553646 -88.752024 6.481194 23.798072 -0.987159 -176.044984 -21.10972 -88.530333 25.328851 -38.645827 4.509387 132.071004 13.753636 -110.584115 -21.819956 -26.745883 8.952699 -18.212321 -52.166148 1.630756 156.603395 14.389482 -140.108281 0.022217 -1.881605 0.592323 155.436256 -3.743553 -172.306676 3.430393 -8.233477 3.202116 5.129296 -18.029491 6.927459 -179.999445 75.751388 -0.000381 -177.394016 33.663196 -177.999934 -70.320308 -82.622624 9.722628 -123.829753 -79.371427 -36.685504 -0.000883 -0.000607 -0.001153 26.978494 -63.747453 -38.574571 -47.904311 22.975474 -121.690825 119.395685 48.532321 165.33937
23.5795 56.541799999999995 -15.3501 -18.619748 -75.351334 22.852754 -0.457634 14.251851 -168.969225 2.333213 7.039709 -177.281176 -13.566822 28.140104 -92.663549 50.315853 15.302637 79.788273 -0.000305 0.0 -0.004784 0.00061 0.0 0.000478 -36.055771 61.338786 38.591464 69.250106 -28.329986 102.111986 -177.877025 -9.370107 23.594502 -161.443733 16.514951 137.399524 158.891158 -34.417096 82.661348 -65.799922 12.890404 13.756675 -11.811663 16.491519 7.764903 33.395556 -32.301974 1.478929 -152.887605 14.650174 138.557445 -169.503694 -23.747975 143.928913 -145.114392 -0.506525 -178.968628 -151.435108 -29.909799 -174.301361 -130.687879 -21.057249 -128.273219 60.67641 83.109771 -22.501993 -1.33 -8.849866 1.862885 95.648943 -5.698734 -171.39549 113.528862 3.410208 91.968679 -12.858779 -32.381759 -5.6267 176.468044 -14.087738 -89.702403 -11.914832 -62.48066 -11.539252 125.215158 21.468763 -105.500383 140.581561 27.182339 -108.815808 162.792921 -13.348696 -144.137355 158.897558 7.854421 -141.161355 145.121204 0.977469 179.437186 -10.59118 5.529608 8.318212 134.000698 -15.40881 131.451197 147.830856 14.146592 142.407487 -0.00014 -0.001322 -0.001418 3.44571 -40.892521 7.683355 62.386209 66.650338 1.777947 -56.180834 -56.301875 -126.713342 0.0061 -0.000196 0.00281 23.148072 -65.982598 28.233238 -2.79369 53.343641 -124.226168 107.968073 -12.462389 -168.64168
25.4088 56.3889 -16.6621 -14.26885 -70.617475 18.434495 0.477099 19.813895 -0.601875 -0.279022 -12.361741 12.629283 5.977382 31.835595 138.852031 -37.86892 42.558345 -133.932844 0.001393 0.0 0.001323 0.000748 -0.0 -0.001879 -1.622293 8.737196 2.075734 72.96409 -0.038968 63.708134 -0.886837 39.721308 125.530833 -9.545352 -23.002005 -6.130317 1.080409 -1.068286 -0.155946 -30.409434 24.030463 26.4647 9.352225 -16.451926 -4.286456 10.873279 3.801161 -0.392664 155.784667 -75.85686 123.127381 -12.076496 33.857843 9.610594 0.005058 0.885418 0.27796 7.85968 23.34161 3.414189 -147.128754 18.510675 -143.530584 -156.871678 40.387576 -146.319082 0.709034 4.050212 -0.926781 93.026883 -4.097237 -156.382004 -5.432902 12.914442 116.556405 -167.011424 -24.29746 -142.651619 167.866114 -5.542232 -89.856704 8.352377 -47.218857 -7.828388 120.152518 26.13085 -101.506042 36.837069 47.897155 -20.666271 178.325691 -55.246 -142.986623 5.047356 20.856822 -4.61717 145.123283 2.001697 179.756554 -10.123464 0.681255 8.907066 150.895246 32.254903 146.611693 22.140881 -37.222316 23.280544 0.00264 -0.000862 -0.000303 4.663064 -44.563491 178.7078 -11.500812 -79.744391 138.100429 -17.800033 -20.468125 -0.489164 -179.988083 75.751382 -0.010215 -171.52958 5.557231 -30.628119 -46.122133 38.880161 -35.191405 85.153176 -50.532902 178.999689
